<svg width="200" height="200" data-name="Layer 1" xmlns="http://www.w3.org/2000/svg" viewBox="0 0 288.06 293.61"><title>dot-grid</title><circle cx="4.22" cy="4.22" r="4.22"/><circle cx="15.87" cy="4.22" r="4.22"/><circle cx="27.52" cy="4.22" r="4.22"/><circle cx="39.17" cy="4.22" r="4.22"/><circle cx="50.82" cy="4.22" r="4.22"/><circle cx="62.47" cy="4.22" r="4.22"/><circle cx="74.13" cy="4.22" r="4.22"/><circle cx="85.78" cy="4.22" r="4.22"/><circle cx="97.43" cy="4.22" r="4.22"/><circle cx="109.08" cy="4.22" r="4.22"/><circle cx="120.73" cy="4.22" r="4.22"/><circle cx="132.38" cy="4.22" r="4.22"/><circle cx="144.03" cy="4.22" r="4.22"/><circle cx="155.68" cy="4.22" r="4.22"/><circle cx="167.33" cy="4.22" r="4.22"/><circle cx="178.98" cy="4.22" r="4.22"/><circle cx="190.63" cy="4.22" r="4.22"/><circle cx="202.28" cy="4.22" r="4.22"/><circle cx="213.93" cy="4.22" r="4.22"/><circle cx="225.59" cy="4.22" r="4.22"/><circle cx="237.24" cy="4.22" r="4.22"/><circle cx="248.89" cy="4.22" r="4.22"/><circle cx="260.54" cy="4.22" r="4.22"/><circle cx="272.19" cy="4.22" r="4.22"/><circle cx="283.84" cy="4.22" r="4.22"/><circle cx="4.22" cy="15.63" r="4.22"/><circle cx="15.87" cy="15.63" r="4.22"/><circle cx="27.52" cy="15.63" r="4.22"/><circle cx="39.17" cy="15.63" r="4.22"/><circle cx="50.82" cy="15.63" r="4.22"/><circle cx="62.47" cy="15.63" r="4.22"/><circle cx="74.13" cy="15.63" r="4.22"/><circle cx="85.78" cy="15.63" r="4.22"/><circle cx="97.43" cy="15.63" r="4.22"/><circle cx="109.08" cy="15.63" r="4.22"/><circle cx="120.73" cy="15.63" r="4.22"/><circle cx="132.38" cy="15.63" r="4.22"/><circle cx="144.03" cy="15.63" r="4.22"/><circle cx="155.68" cy="15.63" r="4.22"/><circle cx="167.33" cy="15.63" r="4.22"/><circle cx="178.98" cy="15.63" r="4.22"/><circle cx="190.63" cy="15.63" r="4.22"/><circle cx="202.28" cy="15.63" r="4.22"/><circle cx="213.93" cy="15.63" r="4.22"/><circle cx="225.59" cy="15.63" r="4.22"/><circle cx="237.24" cy="15.63" r="4.22"/><circle cx="248.89" cy="15.63" r="4.22"/><circle cx="260.54" cy="15.63" r="4.22"/><circle cx="272.19" cy="15.63" r="4.22"/><circle cx="283.84" cy="15.63" r="4.22"/><circle cx="4.22" cy="27.03" r="4.22"/><circle cx="15.87" cy="27.03" r="4.22"/><circle cx="27.52" cy="27.03" r="4.22"/><circle cx="39.17" cy="27.03" r="4.22"/><circle cx="50.82" cy="27.03" r="4.22"/><circle cx="62.47" cy="27.03" r="4.22"/><circle cx="74.13" cy="27.03" r="4.22"/><circle cx="85.78" cy="27.03" r="4.22"/><circle cx="97.43" cy="27.03" r="4.22"/><circle cx="109.08" cy="27.03" r="4.22"/><circle cx="120.73" cy="27.03" r="4.22"/><circle cx="132.38" cy="27.03" r="4.22"/><circle cx="144.03" cy="27.03" r="4.22"/><circle cx="155.68" cy="27.03" r="4.22"/><circle cx="167.33" cy="27.03" r="4.22"/><circle cx="178.98" cy="27.03" r="4.22"/><circle cx="190.63" cy="27.03" r="4.22"/><circle cx="202.28" cy="27.03" r="4.22"/><circle cx="213.93" cy="27.03" r="4.22"/><circle cx="225.59" cy="27.03" r="4.22"/><circle cx="237.24" cy="27.03" r="4.22"/><circle cx="248.89" cy="27.03" r="4.22"/><circle cx="260.54" cy="27.03" r="4.22"/><circle cx="272.19" cy="27.03" r="4.22"/><circle cx="283.84" cy="27.03" r="4.22"/><circle cx="4.22" cy="38.44" r="4.22"/><circle cx="15.87" cy="38.44" r="4.22"/><circle cx="27.52" cy="38.44" r="4.22"/><circle cx="39.17" cy="38.44" r="4.22"/><circle cx="50.82" cy="38.44" r="4.22"/><circle cx="62.47" cy="38.44" r="4.22"/><circle cx="74.13" cy="38.44" r="4.22"/><circle cx="85.78" cy="38.44" r="4.22"/><circle cx="97.43" cy="38.44" r="4.22"/><circle cx="109.08" cy="38.44" r="4.22"/><circle cx="120.73" cy="38.44" r="4.22"/><circle cx="132.38" cy="38.44" r="4.22"/><circle cx="144.03" cy="38.44" r="4.22"/><circle cx="155.68" cy="38.44" r="4.22"/><circle cx="167.33" cy="38.44" r="4.22"/><circle cx="178.98" cy="38.44" r="4.22"/><circle cx="190.63" cy="38.44" r="4.22"/><circle cx="202.28" cy="38.44" r="4.22"/><circle cx="213.93" cy="38.44" r="4.22"/><circle cx="225.59" cy="38.44" r="4.22"/><circle cx="237.24" cy="38.44" r="4.22"/><circle cx="248.89" cy="38.44" r="4.22"/><circle cx="260.54" cy="38.44" r="4.22"/><circle cx="272.19" cy="38.44" r="4.22"/><circle cx="283.84" cy="38.44" r="4.22"/><circle cx="4.22" cy="49.85" r="4.22"/><circle cx="15.87" cy="49.85" r="4.22"/><circle cx="27.52" cy="49.85" r="4.22"/><circle cx="39.17" cy="49.85" r="4.22"/><circle cx="50.82" cy="49.85" r="4.22"/><circle cx="62.47" cy="49.85" r="4.22"/><circle cx="74.13" cy="49.85" r="4.22"/><circle cx="85.78" cy="49.85" r="4.22"/><circle cx="97.43" cy="49.85" r="4.22"/><circle cx="109.08" cy="49.85" r="4.22"/><circle cx="120.73" cy="49.85" r="4.22"/><circle cx="132.38" cy="49.85" r="4.22"/><circle cx="144.03" cy="49.85" r="4.22"/><circle cx="155.68" cy="49.85" r="4.22"/><circle cx="167.33" cy="49.85" r="4.22"/><circle cx="178.98" cy="49.85" r="4.22"/><circle cx="190.63" cy="49.85" r="4.22"/><circle cx="202.28" cy="49.85" r="4.22"/><circle cx="213.93" cy="49.85" r="4.22"/><circle cx="225.59" cy="49.85" r="4.22"/><circle cx="237.24" cy="49.85" r="4.22"/><circle cx="248.89" cy="49.85" r="4.22"/><circle cx="260.54" cy="49.85" r="4.22"/><circle cx="272.19" cy="49.85" r="4.22"/><circle cx="283.84" cy="49.85" r="4.22"/><circle cx="4.22" cy="61.26" r="4.22"/><circle cx="15.87" cy="61.26" r="4.22"/><circle cx="27.52" cy="61.26" r="4.22"/><circle cx="39.17" cy="61.26" r="4.22"/><circle cx="50.82" cy="61.26" r="4.22"/><circle cx="62.47" cy="61.26" r="4.22"/><circle cx="74.13" cy="61.26" r="4.22"/><circle cx="85.78" cy="61.26" r="4.22"/><circle cx="97.43" cy="61.26" r="4.22"/><circle cx="109.08" cy="61.26" r="4.22"/><circle cx="120.73" cy="61.26" r="4.22"/><circle cx="132.38" cy="61.26" r="4.22"/><circle cx="144.03" cy="61.26" r="4.22"/><circle cx="155.68" cy="61.26" r="4.22"/><circle cx="167.33" cy="61.26" r="4.22"/><circle cx="178.98" cy="61.26" r="4.22"/><circle cx="190.63" cy="61.26" r="4.22"/><circle cx="202.28" cy="61.26" r="4.22"/><circle cx="213.93" cy="61.26" r="4.22"/><circle cx="225.59" cy="61.26" r="4.22"/><circle cx="237.24" cy="61.26" r="4.22"/><circle cx="248.89" cy="61.26" r="4.22"/><circle cx="260.54" cy="61.26" r="4.22"/><circle cx="272.19" cy="61.26" r="4.22"/><circle cx="283.84" cy="61.26" r="4.22"/><circle cx="4.22" cy="72.66" r="4.22"/><circle cx="15.87" cy="72.66" r="4.22"/><circle cx="27.52" cy="72.66" r="4.22"/><circle cx="39.17" cy="72.66" r="4.22"/><circle cx="50.82" cy="72.66" r="4.22"/><circle cx="62.47" cy="72.66" r="4.22"/><circle cx="74.13" cy="72.66" r="4.22"/><circle cx="85.78" cy="72.66" r="4.22"/><circle cx="97.43" cy="72.66" r="4.22"/><circle cx="109.08" cy="72.66" r="4.22"/><circle cx="120.73" cy="72.66" r="4.22"/><circle cx="132.38" cy="72.66" r="4.22"/><circle cx="144.03" cy="72.66" r="4.22"/><circle cx="155.68" cy="72.66" r="4.22"/><circle cx="167.33" cy="72.66" r="4.22"/><circle cx="178.98" cy="72.66" r="4.22"/><circle cx="190.63" cy="72.66" r="4.22"/><circle cx="202.28" cy="72.66" r="4.22"/><circle cx="213.93" cy="72.66" r="4.22"/><circle cx="225.59" cy="72.66" r="4.22"/><circle cx="237.24" cy="72.66" r="4.22"/><circle cx="248.89" cy="72.66" r="4.22"/><circle cx="260.54" cy="72.66" r="4.22"/><circle cx="272.19" cy="72.66" r="4.22"/><circle cx="283.84" cy="72.66" r="4.22"/><circle cx="4.22" cy="84.07" r="4.22"/><circle cx="15.87" cy="84.07" r="4.22"/><circle cx="27.52" cy="84.07" r="4.22"/><circle cx="39.17" cy="84.07" r="4.22"/><circle cx="50.82" cy="84.07" r="4.22"/><circle cx="62.47" cy="84.07" r="4.22"/><circle cx="74.13" cy="84.07" r="4.22"/><circle cx="85.78" cy="84.07" r="4.22"/><circle cx="97.43" cy="84.07" r="4.22"/><circle cx="109.08" cy="84.07" r="4.22"/><circle cx="120.73" cy="84.07" r="4.22"/><circle cx="132.38" cy="84.07" r="4.22"/><circle cx="144.03" cy="84.07" r="4.22"/><circle cx="155.68" cy="84.07" r="4.22"/><circle cx="167.33" cy="84.07" r="4.22"/><circle cx="178.98" cy="84.07" r="4.22"/><circle cx="190.63" cy="84.07" r="4.22"/><circle cx="202.28" cy="84.07" r="4.22"/><circle cx="213.93" cy="84.07" r="4.22"/><circle cx="225.59" cy="84.07" r="4.22"/><circle cx="237.24" cy="84.07" r="4.22"/><circle cx="248.89" cy="84.07" r="4.22"/><circle cx="260.54" cy="84.07" r="4.22"/><circle cx="272.19" cy="84.07" r="4.22"/><circle cx="283.84" cy="84.07" r="4.22"/><circle cx="4.22" cy="95.48" r="4.22"/><circle cx="15.87" cy="95.48" r="4.22"/><circle cx="27.52" cy="95.48" r="4.22"/><circle cx="39.17" cy="95.48" r="4.22"/><circle cx="50.82" cy="95.48" r="4.22"/><circle cx="62.47" cy="95.48" r="4.22"/><circle cx="74.13" cy="95.48" r="4.22"/><circle cx="85.78" cy="95.48" r="4.22"/><circle cx="97.43" cy="95.48" r="4.22"/><circle cx="109.08" cy="95.48" r="4.22"/><circle cx="120.73" cy="95.48" r="4.22"/><circle cx="132.38" cy="95.48" r="4.22"/><circle cx="144.03" cy="95.48" r="4.22"/><circle cx="155.68" cy="95.48" r="4.22"/><circle cx="167.33" cy="95.48" r="4.22"/><circle cx="178.98" cy="95.48" r="4.22"/><circle cx="190.63" cy="95.48" r="4.22"/><circle cx="202.28" cy="95.48" r="4.22"/><circle cx="213.93" cy="95.48" r="4.22"/><circle cx="225.59" cy="95.48" r="4.22"/><circle cx="237.24" cy="95.48" r="4.22"/><circle cx="248.89" cy="95.48" r="4.22"/><circle cx="260.54" cy="95.48" r="4.22"/><circle cx="272.19" cy="95.48" r="4.22"/><circle cx="283.84" cy="95.48" r="4.22"/><circle cx="4.22" cy="106.88" r="4.22"/><circle cx="15.87" cy="106.88" r="4.22"/><circle cx="27.52" cy="106.88" r="4.22"/><circle cx="39.17" cy="106.88" r="4.22"/><circle cx="50.82" cy="106.88" r="4.22"/><circle cx="62.47" cy="106.88" r="4.22"/><circle cx="74.13" cy="106.88" r="4.22"/><circle cx="85.78" cy="106.88" r="4.22"/><circle cx="97.43" cy="106.88" r="4.22"/><circle cx="109.08" cy="106.88" r="4.22"/><circle cx="120.73" cy="106.88" r="4.22"/><circle cx="132.38" cy="106.88" r="4.22"/><circle cx="144.03" cy="106.88" r="4.22"/><circle cx="155.68" cy="106.88" r="4.22"/><circle cx="167.33" cy="106.88" r="4.22"/><circle cx="178.98" cy="106.88" r="4.22"/><circle cx="190.63" cy="106.88" r="4.22"/><circle cx="202.28" cy="106.88" r="4.22"/><circle cx="213.93" cy="106.88" r="4.22"/><circle cx="225.59" cy="106.88" r="4.22"/><circle cx="237.24" cy="106.88" r="4.22"/><circle cx="248.89" cy="106.88" r="4.22"/><circle cx="260.54" cy="106.88" r="4.22"/><circle cx="272.19" cy="106.88" r="4.22"/><circle cx="283.84" cy="106.88" r="4.22"/><circle cx="4.22" cy="118.29" r="4.22"/><circle cx="15.87" cy="118.29" r="4.22"/><circle cx="27.52" cy="118.29" r="4.22"/><circle cx="39.17" cy="118.29" r="4.22"/><circle cx="50.82" cy="118.29" r="4.22"/><circle cx="62.47" cy="118.29" r="4.22"/><circle cx="74.13" cy="118.29" r="4.22"/><circle cx="85.78" cy="118.29" r="4.22"/><circle cx="97.43" cy="118.29" r="4.22"/><circle cx="109.08" cy="118.29" r="4.22"/><circle cx="120.73" cy="118.29" r="4.22"/><circle cx="132.38" cy="118.29" r="4.22"/><circle cx="144.03" cy="118.29" r="4.22"/><circle cx="155.68" cy="118.29" r="4.22"/><circle cx="167.33" cy="118.29" r="4.22"/><circle cx="178.98" cy="118.29" r="4.22"/><circle cx="190.63" cy="118.29" r="4.22"/><circle cx="202.28" cy="118.29" r="4.22"/><circle cx="213.93" cy="118.29" r="4.22"/><circle cx="225.59" cy="118.29" r="4.22"/><circle cx="237.24" cy="118.29" r="4.22"/><circle cx="248.89" cy="118.29" r="4.22"/><circle cx="260.54" cy="118.29" r="4.22"/><circle cx="272.19" cy="118.29" r="4.22"/><circle cx="283.84" cy="118.29" r="4.22"/><circle cx="4.22" cy="129.7" r="4.22"/><circle cx="15.87" cy="129.7" r="4.22"/><circle cx="27.52" cy="129.7" r="4.22"/><circle cx="39.17" cy="129.7" r="4.22"/><circle cx="50.82" cy="129.7" r="4.22"/><circle cx="62.47" cy="129.7" r="4.22"/><circle cx="74.13" cy="129.7" r="4.22"/><circle cx="85.78" cy="129.7" r="4.22"/><circle cx="97.43" cy="129.7" r="4.22"/><circle cx="109.08" cy="129.7" r="4.22"/><circle cx="120.73" cy="129.7" r="4.22"/><circle cx="132.38" cy="129.7" r="4.22"/><circle cx="144.03" cy="129.7" r="4.22"/><circle cx="155.68" cy="129.7" r="4.22"/><circle cx="167.33" cy="129.7" r="4.22"/><circle cx="178.98" cy="129.7" r="4.22"/><circle cx="190.63" cy="129.7" r="4.22"/><circle cx="202.28" cy="129.7" r="4.22"/><circle cx="213.93" cy="129.7" r="4.22"/><circle cx="225.59" cy="129.7" r="4.22"/><circle cx="237.24" cy="129.7" r="4.22"/><circle cx="248.89" cy="129.7" r="4.22"/><circle cx="260.54" cy="129.7" r="4.22"/><circle cx="272.19" cy="129.7" r="4.22"/><circle cx="283.84" cy="129.7" r="4.22"/><circle cx="4.22" cy="141.1" r="4.22"/><circle cx="15.87" cy="141.1" r="4.22"/><circle cx="27.52" cy="141.1" r="4.22"/><circle cx="39.17" cy="141.1" r="4.22"/><circle cx="50.82" cy="141.1" r="4.22"/><circle cx="62.47" cy="141.1" r="4.22"/><circle cx="74.13" cy="141.1" r="4.22"/><circle cx="85.78" cy="141.1" r="4.22"/><circle cx="97.43" cy="141.1" r="4.22"/><circle cx="109.08" cy="141.1" r="4.22"/><circle cx="120.73" cy="141.1" r="4.22"/><circle cx="132.38" cy="141.1" r="4.22"/><circle cx="144.03" cy="141.1" r="4.22"/><circle cx="155.68" cy="141.1" r="4.22"/><circle cx="167.33" cy="141.1" r="4.22"/><circle cx="178.98" cy="141.1" r="4.22"/><circle cx="190.63" cy="141.1" r="4.22"/><circle cx="202.28" cy="141.1" r="4.22"/><circle cx="213.93" cy="141.1" r="4.22"/><circle cx="225.59" cy="141.1" r="4.22"/><circle cx="237.24" cy="141.1" r="4.22"/><circle cx="248.89" cy="141.1" r="4.22"/><circle cx="260.54" cy="141.1" r="4.22"/><circle cx="272.19" cy="141.1" r="4.22"/><circle cx="283.84" cy="141.1" r="4.22"/><circle cx="4.22" cy="152.51" r="4.22"/><circle cx="15.87" cy="152.51" r="4.22"/><circle cx="27.52" cy="152.51" r="4.22"/><circle cx="39.17" cy="152.51" r="4.22"/><circle cx="50.82" cy="152.51" r="4.22"/><circle cx="62.47" cy="152.51" r="4.22"/><circle cx="74.13" cy="152.51" r="4.22"/><circle cx="85.78" cy="152.51" r="4.22"/><circle cx="97.43" cy="152.51" r="4.22"/><circle cx="109.08" cy="152.51" r="4.22"/><circle cx="120.73" cy="152.51" r="4.22"/><circle cx="132.38" cy="152.51" r="4.22"/><circle cx="144.03" cy="152.51" r="4.22"/><circle cx="155.68" cy="152.51" r="4.22"/><circle cx="167.33" cy="152.51" r="4.22"/><circle cx="178.98" cy="152.51" r="4.22"/><circle cx="190.63" cy="152.51" r="4.22"/><circle cx="202.28" cy="152.51" r="4.22"/><circle cx="213.93" cy="152.51" r="4.22"/><circle cx="225.59" cy="152.51" r="4.22"/><circle cx="237.24" cy="152.51" r="4.22"/><circle cx="248.89" cy="152.51" r="4.22"/><circle cx="260.54" cy="152.51" r="4.22"/><circle cx="272.19" cy="152.51" r="4.22"/><circle cx="283.84" cy="152.51" r="4.22"/><circle cx="4.22" cy="163.92" r="4.22"/><circle cx="15.87" cy="163.92" r="4.22"/><circle cx="27.52" cy="163.92" r="4.22"/><circle cx="39.17" cy="163.92" r="4.22"/><circle cx="50.82" cy="163.92" r="4.22"/><circle cx="62.47" cy="163.92" r="4.22"/><circle cx="74.13" cy="163.92" r="4.22"/><circle cx="85.78" cy="163.92" r="4.22"/><circle cx="97.43" cy="163.92" r="4.22"/><circle cx="109.08" cy="163.92" r="4.22"/><circle cx="120.73" cy="163.92" r="4.22"/><circle cx="132.38" cy="163.92" r="4.22"/><circle cx="144.03" cy="163.92" r="4.22"/><circle cx="155.68" cy="163.92" r="4.22"/><circle cx="167.33" cy="163.92" r="4.22"/><circle cx="178.98" cy="163.92" r="4.22"/><circle cx="190.63" cy="163.92" r="4.22"/><circle cx="202.28" cy="163.92" r="4.22"/><circle cx="213.93" cy="163.92" r="4.22"/><circle cx="225.59" cy="163.92" r="4.22"/><circle cx="237.24" cy="163.92" r="4.22"/><circle cx="248.89" cy="163.92" r="4.22"/><circle cx="260.54" cy="163.92" r="4.22"/><circle cx="272.19" cy="163.92" r="4.22"/><circle cx="283.84" cy="163.92" r="4.22"/><circle cx="4.22" cy="175.32" r="4.22"/><circle cx="15.87" cy="175.32" r="4.22"/><circle cx="27.52" cy="175.32" r="4.22"/><circle cx="39.17" cy="175.32" r="4.22"/><circle cx="50.82" cy="175.32" r="4.22"/><circle cx="62.47" cy="175.32" r="4.22"/><circle cx="74.13" cy="175.32" r="4.22"/><circle cx="85.78" cy="175.32" r="4.22"/><circle cx="97.43" cy="175.32" r="4.22"/><circle cx="109.08" cy="175.32" r="4.22"/><circle cx="120.73" cy="175.32" r="4.22"/><circle cx="132.38" cy="175.32" r="4.22"/><circle cx="144.03" cy="175.32" r="4.22"/><circle cx="155.68" cy="175.32" r="4.22"/><circle cx="167.33" cy="175.32" r="4.22"/><circle cx="178.98" cy="175.32" r="4.22"/><circle cx="190.63" cy="175.32" r="4.22"/><circle cx="202.28" cy="175.32" r="4.22"/><circle cx="213.93" cy="175.32" r="4.22"/><circle cx="225.59" cy="175.32" r="4.22"/><circle cx="237.24" cy="175.32" r="4.22"/><circle cx="248.89" cy="175.32" r="4.22"/><circle cx="260.54" cy="175.32" r="4.22"/><circle cx="272.19" cy="175.32" r="4.22"/><circle cx="283.84" cy="175.32" r="4.22"/><circle cx="4.22" cy="186.73" r="4.22"/><circle cx="15.87" cy="186.73" r="4.22"/><circle cx="27.52" cy="186.73" r="4.22"/><circle cx="39.17" cy="186.73" r="4.22"/><circle cx="50.82" cy="186.73" r="4.22"/><circle cx="62.47" cy="186.73" r="4.22"/><circle cx="74.13" cy="186.73" r="4.22"/><circle cx="85.78" cy="186.73" r="4.22"/><circle cx="97.43" cy="186.73" r="4.22"/><circle cx="109.08" cy="186.73" r="4.22"/><circle cx="120.73" cy="186.73" r="4.22"/><circle cx="132.38" cy="186.73" r="4.22"/><circle cx="144.03" cy="186.73" r="4.22"/><circle cx="155.68" cy="186.73" r="4.22"/><circle cx="167.33" cy="186.73" r="4.22"/><circle cx="178.98" cy="186.73" r="4.22"/><circle cx="190.63" cy="186.73" r="4.22"/><circle cx="202.28" cy="186.73" r="4.22"/><circle cx="213.93" cy="186.73" r="4.22"/><circle cx="225.59" cy="186.73" r="4.22"/><circle cx="237.24" cy="186.73" r="4.22"/><circle cx="248.89" cy="186.73" r="4.22"/><circle cx="260.54" cy="186.73" r="4.22"/><circle cx="272.19" cy="186.73" r="4.22"/><circle cx="283.84" cy="186.73" r="4.22"/><circle cx="4.22" cy="198.14" r="4.22"/><circle cx="15.87" cy="198.14" r="4.22"/><circle cx="27.52" cy="198.14" r="4.22"/><circle cx="39.17" cy="198.14" r="4.22"/><circle cx="50.82" cy="198.14" r="4.22"/><circle cx="62.47" cy="198.14" r="4.22"/><circle cx="74.13" cy="198.14" r="4.22"/><circle cx="85.78" cy="198.14" r="4.22"/><circle cx="97.43" cy="198.14" r="4.22"/><circle cx="109.08" cy="198.14" r="4.22"/><circle cx="120.73" cy="198.14" r="4.22"/><circle cx="132.38" cy="198.14" r="4.22"/><circle cx="144.03" cy="198.14" r="4.22"/><circle cx="155.68" cy="198.14" r="4.22"/><circle cx="167.33" cy="198.14" r="4.22"/><circle cx="178.98" cy="198.14" r="4.22"/><circle cx="190.63" cy="198.14" r="4.22"/><circle cx="202.28" cy="198.14" r="4.22"/><circle cx="213.93" cy="198.14" r="4.22"/><circle cx="225.59" cy="198.14" r="4.22"/><circle cx="237.24" cy="198.14" r="4.22"/><circle cx="248.89" cy="198.14" r="4.22"/><circle cx="260.54" cy="198.14" r="4.22"/><circle cx="272.19" cy="198.14" r="4.22"/><circle cx="283.84" cy="198.14" r="4.22"/><circle cx="4.22" cy="209.54" r="4.22"/><circle cx="15.87" cy="209.54" r="4.22"/><circle cx="27.52" cy="209.54" r="4.22"/><circle cx="39.17" cy="209.54" r="4.22"/><circle cx="50.82" cy="209.54" r="4.22"/><circle cx="62.47" cy="209.54" r="4.22"/><circle cx="74.13" cy="209.54" r="4.22"/><circle cx="85.78" cy="209.54" r="4.22"/><circle cx="97.43" cy="209.54" r="4.22"/><circle cx="109.08" cy="209.54" r="4.22"/><circle cx="120.73" cy="209.54" r="4.22"/><circle cx="132.38" cy="209.54" r="4.22"/><circle cx="144.03" cy="209.54" r="4.22"/><circle cx="155.68" cy="209.54" r="4.22"/><circle cx="167.33" cy="209.54" r="4.22"/><circle cx="178.98" cy="209.54" r="4.22"/><circle cx="190.63" cy="209.54" r="4.22"/><circle cx="202.28" cy="209.54" r="4.22"/><circle cx="213.93" cy="209.54" r="4.22"/><circle cx="225.59" cy="209.54" r="4.22"/><circle cx="237.24" cy="209.54" r="4.22"/><circle cx="248.89" cy="209.54" r="4.22"/><circle cx="260.54" cy="209.54" r="4.22"/><circle cx="272.19" cy="209.54" r="4.22"/><circle cx="283.84" cy="209.54" r="4.22"/><circle cx="4.22" cy="220.95" r="4.22"/><circle cx="15.87" cy="220.95" r="4.22"/><circle cx="27.52" cy="220.95" r="4.22"/><circle cx="39.17" cy="220.95" r="4.22"/><circle cx="50.82" cy="220.95" r="4.22"/><circle cx="62.47" cy="220.95" r="4.22"/><circle cx="74.13" cy="220.95" r="4.22"/><circle cx="85.78" cy="220.95" r="4.22"/><circle cx="97.43" cy="220.95" r="4.22"/><circle cx="109.08" cy="220.95" r="4.22"/><circle cx="120.73" cy="220.95" r="4.22"/><circle cx="132.38" cy="220.95" r="4.22"/><circle cx="144.03" cy="220.95" r="4.22"/><circle cx="155.68" cy="220.95" r="4.22"/><circle cx="167.33" cy="220.95" r="4.22"/><circle cx="178.98" cy="220.95" r="4.22"/><circle cx="190.63" cy="220.95" r="4.22"/><circle cx="202.28" cy="220.95" r="4.22"/><circle cx="213.93" cy="220.95" r="4.22"/><circle cx="225.59" cy="220.95" r="4.22"/><circle cx="237.24" cy="220.95" r="4.22"/><circle cx="248.89" cy="220.95" r="4.22"/><circle cx="260.54" cy="220.95" r="4.22"/><circle cx="272.19" cy="220.95" r="4.22"/><circle cx="283.84" cy="220.95" r="4.22"/><circle cx="4.22" cy="232.36" r="4.22"/><circle cx="15.87" cy="232.36" r="4.22"/><circle cx="27.52" cy="232.36" r="4.22"/><circle cx="39.17" cy="232.36" r="4.22"/><circle cx="50.82" cy="232.36" r="4.22"/><circle cx="62.47" cy="232.36" r="4.22"/><circle cx="74.13" cy="232.36" r="4.22"/><circle cx="85.78" cy="232.36" r="4.22"/><circle cx="97.43" cy="232.36" r="4.22"/><circle cx="109.08" cy="232.36" r="4.22"/><circle cx="120.73" cy="232.36" r="4.22"/><circle cx="132.38" cy="232.36" r="4.22"/><circle cx="144.03" cy="232.36" r="4.22"/><circle cx="155.68" cy="232.36" r="4.22"/><circle cx="167.33" cy="232.36" r="4.22"/><circle cx="178.98" cy="232.36" r="4.22"/><circle cx="190.63" cy="232.36" r="4.22"/><circle cx="202.28" cy="232.36" r="4.22"/><circle cx="213.93" cy="232.36" r="4.22"/><circle cx="225.59" cy="232.36" r="4.22"/><circle cx="237.24" cy="232.36" r="4.22"/><circle cx="248.89" cy="232.36" r="4.22"/><circle cx="260.54" cy="232.36" r="4.22"/><circle cx="272.19" cy="232.36" r="4.22"/><circle cx="283.84" cy="232.36" r="4.22"/><circle cx="4.22" cy="243.76" r="4.22"/><circle cx="15.87" cy="243.76" r="4.22"/><circle cx="27.52" cy="243.76" r="4.22"/><circle cx="39.17" cy="243.76" r="4.22"/><circle cx="50.82" cy="243.76" r="4.22"/><circle cx="62.47" cy="243.76" r="4.22"/><circle cx="74.13" cy="243.76" r="4.22"/><circle cx="85.78" cy="243.76" r="4.22"/><circle cx="97.43" cy="243.76" r="4.22"/><circle cx="109.08" cy="243.76" r="4.22"/><circle cx="120.73" cy="243.76" r="4.22"/><circle cx="132.38" cy="243.76" r="4.22"/><circle cx="144.03" cy="243.76" r="4.22"/><circle cx="155.68" cy="243.76" r="4.22"/><circle cx="167.33" cy="243.76" r="4.22"/><circle cx="178.98" cy="243.76" r="4.22"/><circle cx="190.63" cy="243.76" r="4.22"/><circle cx="202.28" cy="243.76" r="4.22"/><circle cx="213.93" cy="243.76" r="4.22"/><circle cx="225.59" cy="243.76" r="4.22"/><circle cx="237.24" cy="243.76" r="4.22"/><circle cx="248.89" cy="243.76" r="4.22"/><circle cx="260.54" cy="243.76" r="4.22"/><circle cx="272.19" cy="243.76" r="4.22"/><circle cx="283.84" cy="243.76" r="4.22"/><circle cx="4.22" cy="255.17" r="4.22"/><circle cx="15.87" cy="255.17" r="4.22"/><circle cx="27.52" cy="255.17" r="4.22"/><circle cx="39.17" cy="255.17" r="4.22"/><circle cx="50.82" cy="255.17" r="4.22"/><circle cx="62.47" cy="255.17" r="4.22"/><circle cx="74.13" cy="255.17" r="4.22"/><circle cx="85.78" cy="255.17" r="4.22"/><circle cx="97.43" cy="255.17" r="4.22"/><circle cx="109.08" cy="255.17" r="4.22"/><circle cx="120.73" cy="255.17" r="4.22"/><circle cx="132.38" cy="255.17" r="4.22"/><circle cx="144.03" cy="255.17" r="4.22"/><circle cx="155.68" cy="255.17" r="4.22"/><circle cx="167.33" cy="255.17" r="4.22"/><circle cx="178.98" cy="255.17" r="4.22"/><circle cx="190.63" cy="255.17" r="4.22"/><circle cx="202.28" cy="255.17" r="4.22"/><circle cx="213.93" cy="255.17" r="4.22"/><circle cx="225.59" cy="255.17" r="4.22"/><circle cx="237.24" cy="255.17" r="4.22"/><circle cx="248.89" cy="255.17" r="4.22"/><circle cx="260.54" cy="255.17" r="4.22"/><circle cx="272.19" cy="255.17" r="4.22"/><circle cx="283.84" cy="255.17" r="4.22"/><circle cx="4.22" cy="266.58" r="4.22"/><circle cx="15.87" cy="266.58" r="4.22"/><circle cx="27.52" cy="266.58" r="4.22"/><circle cx="39.17" cy="266.58" r="4.22"/><circle cx="50.82" cy="266.58" r="4.22"/><circle cx="62.47" cy="266.58" r="4.22"/><circle cx="74.13" cy="266.58" r="4.22"/><circle cx="85.78" cy="266.58" r="4.22"/><circle cx="97.43" cy="266.58" r="4.22"/><circle cx="109.08" cy="266.58" r="4.22"/><circle cx="120.73" cy="266.58" r="4.22"/><circle cx="132.38" cy="266.58" r="4.22"/><circle cx="144.03" cy="266.58" r="4.22"/><circle cx="155.68" cy="266.58" r="4.22"/><circle cx="167.33" cy="266.58" r="4.22"/><circle cx="178.98" cy="266.58" r="4.22"/><circle cx="190.63" cy="266.58" r="4.22"/><circle cx="202.28" cy="266.58" r="4.22"/><circle cx="213.93" cy="266.58" r="4.22"/><circle cx="225.59" cy="266.58" r="4.22"/><circle cx="237.24" cy="266.58" r="4.22"/><circle cx="248.89" cy="266.58" r="4.22"/><circle cx="260.54" cy="266.58" r="4.22"/><circle cx="272.19" cy="266.58" r="4.22"/><circle cx="283.84" cy="266.58" r="4.22"/><circle cx="4.22" cy="277.98" r="4.22"/><circle cx="15.87" cy="277.98" r="4.22"/><circle cx="27.52" cy="277.98" r="4.22"/><circle cx="39.17" cy="277.98" r="4.22"/><circle cx="50.82" cy="277.98" r="4.22"/><circle cx="62.47" cy="277.98" r="4.22"/><circle cx="74.13" cy="277.98" r="4.22"/><circle cx="85.78" cy="277.98" r="4.22"/><circle cx="97.43" cy="277.98" r="4.22"/><circle cx="109.08" cy="277.98" r="4.22"/><circle cx="120.73" cy="277.98" r="4.22"/><circle cx="132.38" cy="277.98" r="4.22"/><circle cx="144.03" cy="277.98" r="4.22"/><circle cx="155.68" cy="277.98" r="4.22"/><circle cx="167.33" cy="277.98" r="4.22"/><circle cx="178.98" cy="277.98" r="4.22"/><circle cx="190.63" cy="277.98" r="4.22"/><circle cx="202.28" cy="277.98" r="4.22"/><circle cx="213.93" cy="277.98" r="4.22"/><circle cx="225.59" cy="277.98" r="4.22"/><circle cx="237.24" cy="277.98" r="4.22"/><circle cx="248.89" cy="277.98" r="4.22"/><circle cx="260.54" cy="277.98" r="4.22"/><circle cx="272.19" cy="277.98" r="4.22"/><circle cx="283.84" cy="277.98" r="4.22"/><circle cx="4.22" cy="289.39" r="4.22"/><circle cx="15.87" cy="289.39" r="4.22"/><circle cx="27.52" cy="289.39" r="4.22"/><circle cx="39.17" cy="289.39" r="4.22"/><circle cx="50.82" cy="289.39" r="4.22"/><circle cx="62.47" cy="289.39" r="4.22"/><circle cx="74.13" cy="289.39" r="4.22"/><circle cx="85.78" cy="289.39" r="4.22"/><circle cx="97.43" cy="289.39" r="4.22"/><circle cx="109.08" cy="289.39" r="4.22"/><circle cx="120.73" cy="289.39" r="4.22"/><circle cx="132.38" cy="289.39" r="4.22"/><circle cx="144.03" cy="289.39" r="4.22"/><circle cx="155.68" cy="289.39" r="4.22"/><circle cx="167.33" cy="289.39" r="4.22"/><circle cx="178.98" cy="289.39" r="4.22"/><circle cx="190.63" cy="289.39" r="4.22"/><circle cx="202.28" cy="289.39" r="4.22"/><circle cx="213.93" cy="289.39" r="4.22"/><circle cx="225.59" cy="289.39" r="4.22"/><circle cx="237.24" cy="289.39" r="4.22"/><circle cx="248.89" cy="289.39" r="4.22"/><circle cx="260.54" cy="289.39" r="4.22"/><circle cx="272.19" cy="289.39" r="4.22"/><circle cx="283.84" cy="289.39" r="4.22"/></svg>